<svg xmlns="http://www.w3.org/2000/svg" width="900" height="520" viewBox="0 0 900 520">
<rect width="100%" height="100%" fill="white"/>
<text x="450.0" y="30" text-anchor="middle" font-family="sans-serif" font-size="20">No-op speedup versus worker count</text>
<line x1="95" y1="65" x2="95" y2="435" stroke="black"/>
<line x1="95" y1="435" x2="870" y2="435" stroke="black"/>
<line x1="95" y1="435.00" x2="870" y2="435.00" stroke="#e5e7eb"/>
<text x="87" y="439.00" text-anchor="end" font-family="sans-serif" font-size="11">0.00</text>
<line x1="95" y1="361.00" x2="870" y2="361.00" stroke="#e5e7eb"/>
<text x="87" y="365.00" text-anchor="end" font-family="sans-serif" font-size="11">0.22</text>
<line x1="95" y1="287.00" x2="870" y2="287.00" stroke="#e5e7eb"/>
<text x="87" y="291.00" text-anchor="end" font-family="sans-serif" font-size="11">0.44</text>
<line x1="95" y1="213.00" x2="870" y2="213.00" stroke="#e5e7eb"/>
<text x="87" y="217.00" text-anchor="end" font-family="sans-serif" font-size="11">0.66</text>
<line x1="95" y1="139.00" x2="870" y2="139.00" stroke="#e5e7eb"/>
<text x="87" y="143.00" text-anchor="end" font-family="sans-serif" font-size="11">0.88</text>
<line x1="95" y1="65.00" x2="870" y2="65.00" stroke="#e5e7eb"/>
<text x="87" y="69.00" text-anchor="end" font-family="sans-serif" font-size="11">1.10</text>
<text x="191.88" y="457" text-anchor="middle" font-family="sans-serif" font-size="12">1</text>
<rect x="124.06" y="98.64" width="135.62" height="336.36" fill="#2563eb"><title>Measured speedup: 1.000000</title></rect>
<text x="385.62" y="457" text-anchor="middle" font-family="sans-serif" font-size="12">2</text>
<rect x="317.81" y="129.68" width="135.62" height="305.32" fill="#2563eb"><title>Measured speedup: 0.907704</title></rect>
<text x="579.38" y="457" text-anchor="middle" font-family="sans-serif" font-size="12">4</text>
<rect x="511.56" y="112.08" width="135.62" height="322.92" fill="#2563eb"><title>Measured speedup: 0.960028</title></rect>
<text x="773.12" y="457" text-anchor="middle" font-family="sans-serif" font-size="12">8</text>
<rect x="705.31" y="177.82" width="135.62" height="257.18" fill="#2563eb"><title>Measured speedup: 0.764583</title></rect>
<text x="482.5" y="495" text-anchor="middle" font-family="sans-serif" font-size="13">Workers</text>
<text x="20" y="250.0" text-anchor="middle" font-family="sans-serif" font-size="13" transform="rotate(-90 20 250.0)">Speedup relative to one worker</text>
<rect x="105" y="42" width="12" height="12" fill="#2563eb"/>
<text x="123" y="53" font-family="sans-serif" font-size="11">Measured speedup</text>
</svg>
