<svg xmlns="http://www.w3.org/2000/svg" width="900" height="520" viewBox="0 0 900 520">
<rect width="100%" height="100%" fill="white"/>
<text x="450.0" y="30" text-anchor="middle" font-family="sans-serif" font-size="20">Shutdown and join median latency</text>
<line x1="95" y1="65" x2="95" y2="435" stroke="black"/>
<line x1="95" y1="435" x2="870" y2="435" stroke="black"/>
<line x1="95" y1="435.00" x2="870" y2="435.00" stroke="#e5e7eb"/>
<text x="87" y="439.00" text-anchor="end" font-family="sans-serif" font-size="11">0.00</text>
<line x1="95" y1="361.00" x2="870" y2="361.00" stroke="#e5e7eb"/>
<text x="87" y="365.00" text-anchor="end" font-family="sans-serif" font-size="11">60478.00</text>
<line x1="95" y1="287.00" x2="870" y2="287.00" stroke="#e5e7eb"/>
<text x="87" y="291.00" text-anchor="end" font-family="sans-serif" font-size="11">120956.00</text>
<line x1="95" y1="213.00" x2="870" y2="213.00" stroke="#e5e7eb"/>
<text x="87" y="217.00" text-anchor="end" font-family="sans-serif" font-size="11">181434.00</text>
<line x1="95" y1="139.00" x2="870" y2="139.00" stroke="#e5e7eb"/>
<text x="87" y="143.00" text-anchor="end" font-family="sans-serif" font-size="11">241912.00</text>
<line x1="95" y1="65.00" x2="870" y2="65.00" stroke="#e5e7eb"/>
<text x="87" y="69.00" text-anchor="end" font-family="sans-serif" font-size="11">302390.00</text>
<text x="224.17" y="457" text-anchor="middle" font-family="sans-serif" font-size="12">noop</text>
<rect x="133.75" y="422.40" width="90.42" height="12.60" fill="#2563eb"><title>Shutdown median: 10300.000000</title></rect>
<rect x="224.17" y="297.96" width="90.42" height="137.04" fill="#dc2626"><title>Join median: 112000.000000</title></rect>
<text x="482.50" y="457" text-anchor="middle" font-family="sans-serif" font-size="12">light_cpu</text>
<rect x="392.08" y="422.03" width="90.42" height="12.97" fill="#2563eb"><title>Shutdown median: 10600.000000</title></rect>
<rect x="482.50" y="298.94" width="90.42" height="136.06" fill="#dc2626"><title>Join median: 111200.000000</title></rect>
<text x="740.83" y="457" text-anchor="middle" font-family="sans-serif" font-size="12">medium_cpu</text>
<rect x="650.42" y="434.14" width="90.42" height="0.86" fill="#2563eb"><title>Shutdown median: 700.000000</title></rect>
<rect x="740.83" y="98.64" width="90.42" height="336.36" fill="#dc2626"><title>Join median: 274900.000000</title></rect>
<text x="482.5" y="495" text-anchor="middle" font-family="sans-serif" font-size="13">Callback profile</text>
<text x="20" y="250.0" text-anchor="middle" font-family="sans-serif" font-size="13" transform="rotate(-90 20 250.0)">Latency (ns, axis starts at zero)</text>
<rect x="105" y="42" width="12" height="12" fill="#2563eb"/>
<text x="123" y="53" font-family="sans-serif" font-size="11">Shutdown median</text>
<rect x="285" y="42" width="12" height="12" fill="#dc2626"/>
<text x="303" y="53" font-family="sans-serif" font-size="11">Join median</text>
</svg>
