<svg xmlns="http://www.w3.org/2000/svg" width="900" height="500" viewBox="0 0 900 500">
<rect width="100%" height="100%" fill="white"/>
<text x="450.0" y="30" text-anchor="middle" font-family="sans-serif" font-size="20">Tasks executed per worker: noop, 4 workers</text>
<line x1="85" y1="60" x2="85" y2="410" stroke="#333"/>
<line x1="85" y1="410" x2="875" y2="410" stroke="#333"/>
<line x1="85" y1="410.0" x2="875" y2="410.0" stroke="#ddd"/>
<text x="75" y="414.0" text-anchor="end" font-family="sans-serif" font-size="12">0</text>
<line x1="85" y1="340.0" x2="875" y2="340.0" stroke="#ddd"/>
<text x="75" y="344.0" text-anchor="end" font-family="sans-serif" font-size="12">5.9e+03</text>
<line x1="85" y1="270.0" x2="875" y2="270.0" stroke="#ddd"/>
<text x="75" y="274.0" text-anchor="end" font-family="sans-serif" font-size="12">1.18e+04</text>
<line x1="85" y1="200.0" x2="875" y2="200.0" stroke="#ddd"/>
<text x="75" y="204.0" text-anchor="end" font-family="sans-serif" font-size="12">1.77e+04</text>
<line x1="85" y1="130.0" x2="875" y2="130.0" stroke="#ddd"/>
<text x="75" y="134.0" text-anchor="end" font-family="sans-serif" font-size="12">2.36e+04</text>
<line x1="85" y1="60.0" x2="875" y2="60.0" stroke="#ddd"/>
<text x="75" y="64.0" text-anchor="end" font-family="sans-serif" font-size="12">2.95e+04</text>
<text x="183.8" y="434" text-anchor="middle" font-family="sans-serif" font-size="12">0</text>
<rect x="112.7" y="97.5" width="140.2" height="312.5" fill="#2364aa"/>
<text x="381.2" y="434" text-anchor="middle" font-family="sans-serif" font-size="12">1</text>
<rect x="310.1" y="129.6" width="140.2" height="280.4" fill="#2364aa"/>
<text x="578.8" y="434" text-anchor="middle" font-family="sans-serif" font-size="12">2</text>
<rect x="507.6" y="135.2" width="140.2" height="274.8" fill="#2364aa"/>
<text x="776.2" y="434" text-anchor="middle" font-family="sans-serif" font-size="12">3</text>
<rect x="705.1" y="105.9" width="140.2" height="304.1" fill="#2364aa"/>
<text x="20" y="235.0" transform="rotate(-90 20 235.0)" text-anchor="middle" font-family="sans-serif" font-size="13">Tasks</text>
<rect x="95" y="470" width="14" height="14" fill="#2364aa"/>
<text x="115" y="482" font-family="sans-serif" font-size="12">median tasks</text>
</svg>
