<svg xmlns="http://www.w3.org/2000/svg" width="900" height="520" viewBox="0 0 900 520">
<rect width="100%" height="100%" fill="white"/>
<text x="450.0" y="30" text-anchor="middle" font-family="sans-serif" font-size="20">No-op throughput versus queue capacity</text>
<line x1="95" y1="65" x2="95" y2="435" stroke="black"/>
<line x1="95" y1="435" x2="870" y2="435" stroke="black"/>
<line x1="95" y1="435.00" x2="870" y2="435.00" stroke="#e5e7eb"/>
<text x="87" y="439.00" text-anchor="end" font-family="sans-serif" font-size="11">0.00</text>
<line x1="95" y1="361.00" x2="870" y2="361.00" stroke="#e5e7eb"/>
<text x="87" y="365.00" text-anchor="end" font-family="sans-serif" font-size="11">279365.79</text>
<line x1="95" y1="287.00" x2="870" y2="287.00" stroke="#e5e7eb"/>
<text x="87" y="291.00" text-anchor="end" font-family="sans-serif" font-size="11">558731.58</text>
<line x1="95" y1="213.00" x2="870" y2="213.00" stroke="#e5e7eb"/>
<text x="87" y="217.00" text-anchor="end" font-family="sans-serif" font-size="11">838097.37</text>
<line x1="95" y1="139.00" x2="870" y2="139.00" stroke="#e5e7eb"/>
<text x="87" y="143.00" text-anchor="end" font-family="sans-serif" font-size="11">1117463.16</text>
<line x1="95" y1="65.00" x2="870" y2="65.00" stroke="#e5e7eb"/>
<text x="87" y="69.00" text-anchor="end" font-family="sans-serif" font-size="11">1396828.94</text>
<text x="191.88" y="457" text-anchor="middle" font-family="sans-serif" font-size="12">1</text>
<rect x="124.06" y="282.87" width="135.62" height="152.13" fill="#2563eb"><title>Median throughput: 574334.705036</title></rect>
<text x="385.62" y="457" text-anchor="middle" font-family="sans-serif" font-size="12">16</text>
<rect x="317.81" y="103.20" width="135.62" height="331.80" fill="#2563eb"><title>Median throughput: 1252624.247799</title></rect>
<text x="579.38" y="457" text-anchor="middle" font-family="sans-serif" font-size="12">64</text>
<rect x="511.56" y="98.64" width="135.62" height="336.36" fill="#2563eb"><title>Median throughput: 1269844.494843</title></rect>
<text x="773.12" y="457" text-anchor="middle" font-family="sans-serif" font-size="12">256</text>
<rect x="705.31" y="101.38" width="135.62" height="333.62" fill="#2563eb"><title>Median throughput: 1259493.431742</title></rect>
<text x="482.5" y="495" text-anchor="middle" font-family="sans-serif" font-size="13">Queue capacity</text>
<text x="20" y="250.0" text-anchor="middle" font-family="sans-serif" font-size="13" transform="rotate(-90 20 250.0)">Tasks/second (axis starts at zero)</text>
<rect x="105" y="42" width="12" height="12" fill="#2563eb"/>
<text x="123" y="53" font-family="sans-serif" font-size="11">Median throughput</text>
</svg>
